<svg viewBox="0 0 97 97" xmlns="http://www.w3.org/2000/svg" fill-rule="evenodd" clip-rule="evenodd" stroke-linejoin="round" stroke-miterlimit="1.414"><path fill="url(#a)" d="M3.943 5.392h26.904v20.4H3.943z" transform="matrix(3.6332 -3.63567 4.74435 4.74113 -88.69 37.532)"/><path d="M66.91 16.324c-5.52-3.257-11.95-5.132-18.822-5.132-20.504 0-37.126 16.637-37.126 37.16 0 20.524 16.622 37.16 37.126 37.16 20.506 0 37.128-16.636 37.128-37.16 0-6.82-1.845-13.207-5.05-18.7l-.455 1.54c2.77 5.1 4.342 10.947 4.342 17.16 0 19.88-16.1 35.998-35.965 35.998-19.862 0-35.963-16.117-35.963-35.998 0-19.88 16.103-35.996 35.964-35.996 6.266 0 12.155 1.607 17.284 4.425l1.54-.456z" fill="#87CDD7"/><path d="M78.363 17.8l-17.128 5.084.278.28c3.553.487 6.33 1.618 8.292 3.42 1.915 1.764 3.135 4.323 3.687 7.648L78.364 17.8z" fill="#87CDD7"/><path d="M61.394 62.762V46.106c0-2.015-.21-3.86-.626-5.533-.42-1.673-1.14-3.108-2.163-4.306-1.024-1.2-2.393-2.13-4.107-2.795-1.714-.665-3.865-1-6.456-1-2.884 0-5.433.173-7.648.514-2.216.343-3.99.666-5.33.97v16.78l5.832-5.832v-7.182c.208-.04.553-.096 1.034-.172.48-.076 1.023-.143 1.63-.2.605-.057 1.242-.104 1.912-.142.668-.037 1.316-.057 1.943-.057 1.546 0 2.84.18 3.887.543 1.044.36 1.88.94 2.506 1.74.627.798 1.076 1.845 1.348 3.137.272 1.293.408 2.85.408 4.677V62.76h5.83v.002z" fill="#fff"/><path d="M35.067 57.717v5.045h5.83v-10.88" fill="#87CDD7"/><defs><linearGradient id="a" x2="1" gradientUnits="userSpaceOnUse" gradientTransform="matrix(26.904 0 0 20.4013 3.943 15.592)"><stop offset="0" stop-color="#262D47"/><stop offset="1" stop-color="#2F5377"/></linearGradient></defs></svg>